<?xml version="1.0" standalone="no"?>
<!DOCTYPE svg PUBLIC "-//W3C//DTD SVG 20010904//EN"
 "http://www.w3.org/TR/2001/REC-SVG-20010904/DTD/svg10.dtd">
<svg version="1.0" xmlns="http://www.w3.org/2000/svg"
 width="2348.000000pt" height="255.000000pt" viewBox="0 0 2348.000000 255.000000"
 preserveAspectRatio="xMidYMid meet">

<g transform="translate(0.000000,255.000000) scale(0.100000,-0.100000)"
fill="#000000" stroke="none">
<path d="M9900 1275 l0 -1045 535 0 535 0 0 100 0 100 -295 0 -295 0 0 100 0
100 -120 0 -120 0 0 295 0 295 390 0 390 0 0 100 0 100 -270 0 -270 0 0 100 0
100 -120 0 -120 0 0 250 0 250 415 0 415 0 0 100 0 100 -535 0 -535 0 0 -1045z"/>
</g>
</svg>
